<mxfile host="app.diagrams.net" modified="2023-10-25T08:54:39.598Z" agent="Mozilla/5.0 (Macintosh; Intel Mac OS X 10_15_7) AppleWebKit/537.36 (KHTML, like Gecko) Chrome/118.0.0.0 Safari/537.36" version="21.8.0" etag="2R-Dzhp8gKm89GH6DsAh" type="github">
  <diagram name="Page-1" id="1lbEg_9egg_RZ93FTHbn">
    <mxGraphModel>
      <root>
        <mxCell id="0" />
        <mxCell id="1" parent="0" />
      </root>
    </mxGraphModel>
  </diagram>
</mxfile>
